<svg width="512" height="512" viewBox="0 0 512 512" xmlns="http://www.w3.org/2000/svg">
  <defs>
    <!-- Background -->
    <linearGradient id="bg" x1="0%" y1="0%" x2="100%" y2="100%">
      <stop offset="0%" stop-color="#0f172a" />
      <stop offset="100%" stop-color="#1e293b" />
    </linearGradient>

    <!-- Layer 1 Gradients -->
    <linearGradient id="top_grad1" x1="0%" y1="0%" x2="100%" y2="100%">
      <stop offset="0%" stop-color="#38bdf8" />
      <stop offset="100%" stop-color="#c084fc" />
    </linearGradient>
    <linearGradient id="left_grad1" x1="0%" y1="0%" x2="0%" y2="100%">
      <stop offset="0%" stop-color="#0ea5e9" />
      <stop offset="100%" stop-color="#0284c7" />
    </linearGradient>
    <linearGradient id="right_grad1" x1="0%" y1="0%" x2="0%" y2="100%">
      <stop offset="0%" stop-color="#a855f7" />
      <stop offset="100%" stop-color="#7e22ce" />
    </linearGradient>

    <!-- Layer 2 Gradients -->
    <linearGradient id="top_grad2" x1="0%" y1="0%" x2="100%" y2="100%">
      <stop offset="0%" stop-color="#0ea5e9" />
      <stop offset="100%" stop-color="#a855f7" />
    </linearGradient>
    <linearGradient id="left_grad2" x1="0%" y1="0%" x2="0%" y2="100%">
      <stop offset="0%" stop-color="#0284c7" />
      <stop offset="100%" stop-color="#0369a1" />
    </linearGradient>
    <linearGradient id="right_grad2" x1="0%" y1="0%" x2="0%" y2="100%">
      <stop offset="0%" stop-color="#9333ea" />
      <stop offset="100%" stop-color="#6b21a8" />
    </linearGradient>

    <!-- Layer 3 Gradients -->
    <linearGradient id="top_grad3" x1="0%" y1="0%" x2="100%" y2="100%">
      <stop offset="0%" stop-color="#0284c7" />
      <stop offset="100%" stop-color="#9333ea" />
    </linearGradient>
    <linearGradient id="left_grad3" x1="0%" y1="0%" x2="0%" y2="100%">
      <stop offset="0%" stop-color="#0369a1" />
      <stop offset="100%" stop-color="#075985" />
    </linearGradient>
    <linearGradient id="right_grad3" x1="0%" y1="0%" x2="0%" y2="100%">
      <stop offset="0%" stop-color="#7e22ce" />
      <stop offset="100%" stop-color="#581c87" />
    </linearGradient>

    <!-- Layer 4 Gradients -->
    <linearGradient id="top_grad4" x1="0%" y1="0%" x2="100%" y2="100%">
      <stop offset="0%" stop-color="#0369a1" />
      <stop offset="100%" stop-color="#7e22ce" />
    </linearGradient>
    <linearGradient id="left_grad4" x1="0%" y1="0%" x2="0%" y2="100%">
      <stop offset="0%" stop-color="#075985" />
      <stop offset="100%" stop-color="#082f49" />
    </linearGradient>
    <linearGradient id="right_grad4" x1="0%" y1="0%" x2="0%" y2="100%">
      <stop offset="0%" stop-color="#581c87" />
      <stop offset="100%" stop-color="#3b0764" />
    </linearGradient>

    <!-- Drop Shadow -->
    <filter id="shadow" x="-50%" y="-50%" width="200%" height="200%">
      <feDropShadow dx="0" dy="16" stdDeviation="20" flood-color="#000000" flood-opacity="0.5" />
    </filter>
  </defs>

  <!-- Background with rounded corners -->
  <rect width="512" height="512" fill="#0f172a" />

  <g transform="translate(120, 54)">
    <!-- Layer 4 (Bottom) -->
    <g filter="url(#shadow)">
      <path d="M 136 194 L 272 262 L 136 330 L 0 262 Z" fill="url(#top_grad4)" stroke="#ffffff" stroke-opacity="0.15" stroke-width="1" stroke-linejoin="round" />
      <path d="M 0 262 L 136 330 L 136 360 L 0 292 Z" fill="url(#left_grad4)" />
      <path d="M 136 330 L 272 262 L 272 292 L 136 360 Z" fill="url(#right_grad4)" />
    </g>

    <!-- Layer 3 -->
    <g filter="url(#shadow)">
      <path d="M 136 144 L 272 212 L 136 280 L 0 212 Z" fill="url(#top_grad3)" stroke="#ffffff" stroke-opacity="0.25" stroke-width="1" stroke-linejoin="round" />
      <path d="M 0 212 L 136 280 L 136 310 L 0 242 Z" fill="url(#left_grad3)" />
      <path d="M 136 280 L 272 212 L 272 242 L 136 310 Z" fill="url(#right_grad3)" />
    </g>

    <!-- Layer 2 -->
    <g filter="url(#shadow)">
      <path d="M 136 94 L 272 162 L 136 230 L 0 162 Z" fill="url(#top_grad2)" stroke="#ffffff" stroke-opacity="0.35" stroke-width="1" stroke-linejoin="round" />
      <path d="M 0 162 L 136 230 L 136 260 L 0 192 Z" fill="url(#left_grad2)" />
      <path d="M 136 230 L 272 162 L 272 192 L 136 260 Z" fill="url(#right_grad2)" />
    </g>

    <!-- Layer 1 (Top) -->
    <g filter="url(#shadow)">
      <path d="M 136 44 L 272 112 L 136 180 L 0 112 Z" fill="url(#top_grad1)" stroke="#ffffff" stroke-opacity="0.5" stroke-width="1.5" stroke-linejoin="round" />
      <path d="M 0 112 L 136 180 L 136 210 L 0 142 Z" fill="url(#left_grad1)" />
      <path d="M 136 180 L 272 112 L 272 142 L 136 210 Z" fill="url(#right_grad1)" />
    </g>
  </g>
</svg>
